<svg width="14" height="15" viewBox="0 0 14 15" fill="none" xmlns="http://www.w3.org/2000/svg">
<g clip-path="url(#clip0_302_92)">
<path d="M13.6686 5.35686C14.1105 4.91301 14.1105 4.19339 13.6686 3.74954C13.2266 3.30569 12.51 3.30569 12.068 3.74954L6.99994 8.83921L1.93197 3.74967C1.49001 3.30582 0.773443 3.30582 0.331476 3.74967C-0.110497 4.19351 -0.110497 4.91313 0.331476 5.35698L6.18325 11.2336C6.18857 11.2392 6.19402 11.2448 6.19955 11.2503C6.34452 11.396 6.5191 11.4938 6.70391 11.5439C6.70839 11.5451 6.71294 11.5463 6.71749 11.5474C7.09241 11.6442 7.50695 11.5452 7.80046 11.2504C7.80774 11.2432 7.81488 11.2358 7.82195 11.2284L13.6686 5.35686Z" fill="#6E6D7A"/>
</g>
<defs>
<clipPath id="clip0_302_92">
<rect width="14" height="14" fill="white" transform="translate(0 0.5)"/>
</clipPath>
</defs>
</svg>
