<svg width="14" height="15" viewBox="0 0 14 15" fill="none" xmlns="http://www.w3.org/2000/svg">
<path fill-rule="evenodd" clip-rule="evenodd" d="M0 4C0 3.51675 0.391751 3.125 0.875 3.125H13.125C13.6082 3.125 14 3.51675 14 4C14 4.48325 13.6082 4.875 13.125 4.875H0.875C0.391751 4.875 0 4.48325 0 4ZM1.75 7.5C1.75 7.01677 2.14175 6.625 2.625 6.625H11.375C11.8582 6.625 12.25 7.01677 12.25 7.5C12.25 7.98323 11.8582 8.375 11.375 8.375H2.625C2.14175 8.375 1.75 7.98323 1.75 7.5ZM4.375 10.125C3.89175 10.125 3.5 10.5168 3.5 11C3.5 11.4832 3.89175 11.875 4.375 11.875H9.625C10.1082 11.875 10.5 11.4832 10.5 11C10.5 10.5168 10.1082 10.125 9.625 10.125H4.375Z" fill="#0D0C22"/>
</svg>
