<svg width="20" height="21" viewBox="0 0 20 21" fill="none" xmlns="http://www.w3.org/2000/svg">
<path d="M10 11.8292C9.40417 11.8292 8.80833 11.7017 8.25417 11.4459L0 7.63585V17.1667C0 18.0875 0.745833 18.8334 1.66667 18.8334H18.3333C19.2542 18.8334 20 18.0875 20 17.1667V7.63585L11.7458 11.4459C11.1917 11.7017 10.5958 11.8292 10 11.8292ZM18.3333 2.16669H1.66667C0.745833 2.16669 0 2.91252 0 3.83335V5.80002L8.9525 9.93169C9.61833 10.2384 10.3825 10.2392 11.0483 9.93169L20 5.80002V3.83335C20 2.91252 19.2542 2.16669 18.3333 2.16669Z" fill="#6E6D7A"/>
</svg>
