<svg width="18" height="18" viewBox="0 0 18 18" fill="none" xmlns="http://www.w3.org/2000/svg">
<path d="M9.01275 0C4.047 0 0.0217476 4.02525 0.0217476 8.99025C0.0217476 12.7995 2.39025 16.053 5.73525 17.3617C5.6565 16.65 5.586 15.5595 5.766 14.7825C5.93025 14.0797 6.8205 10.3148 6.8205 10.3148C6.8205 10.3148 6.55125 9.77475 6.55125 8.979C6.55125 7.73175 7.2765 6.79575 8.17725 6.79575C8.94525 6.79575 9.31575 7.3725 9.31575 8.06175C9.31575 8.8335 8.826 9.987 8.57175 11.0557C8.358 11.9505 9.02175 12.6795 9.903 12.6795C11.499 12.6795 12.729 10.9957 12.729 8.56425C12.729 6.4185 11.1817 4.9125 8.973 4.9125C6.4155 4.9125 4.91625 6.834 4.91625 8.81175C4.91625 9.5865 5.21175 10.419 5.583 10.8675C5.65725 10.9575 5.667 11.0363 5.64675 11.1263C5.57925 11.4075 5.427 12.0255 5.39625 12.1485C5.3565 12.3173 5.26725 12.3518 5.0955 12.2723C3.97425 11.7548 3.27075 10.1138 3.27075 8.78775C3.27075 5.95575 5.33175 3.34875 9.21075 3.34875C12.3292 3.34875 14.7547 5.574 14.7547 8.541C14.7547 11.6423 12.7995 14.1375 10.08 14.1375C9.1695 14.1375 8.3145 13.6658 8.0115 13.1033L7.44975 15.2393C7.248 16.023 6.69675 17.0033 6.32625 17.5988C7.1685 17.8575 8.05575 18 8.98875 18C13.944 18 17.9775 13.9762 17.9775 9.00975C17.9775 4.0425 13.944 0.0195 8.98875 0.0195L9.01275 0Z" fill="#3D3D4E"/>
</svg>
