<svg width="18" height="18" viewBox="0 0 18 18" fill="none" xmlns="http://www.w3.org/2000/svg">
<g clip-path="url(#clip0_302_237)">
<path d="M17.9655 3.4267C17.3018 3.71845 16.593 3.9172 15.8468 4.00795C16.6073 3.5497 17.1922 2.82745 17.469 1.9657C16.7558 2.38195 15.9653 2.68495 15.1238 2.8537C14.4518 2.13445 13.494 1.68445 12.4305 1.68445C10.3927 1.68445 8.7405 3.3367 8.7405 5.3722C8.7405 5.6647 8.77425 5.94595 8.83575 6.2152C5.76825 6.07045 3.0495 4.59745 1.23 2.3707C0.90975 2.9122 0.7305 3.54145 0.7305 4.22695C0.7305 5.50945 1.383 6.6367 2.3715 7.29895C1.76625 7.27945 1.197 7.11295 0.7005 6.83695V6.8827C0.7005 8.67145 1.97025 10.1632 3.66 10.5029C3.35025 10.5862 3.02325 10.6312 2.688 10.6312C2.4525 10.6312 2.22675 10.6087 2.001 10.5667C2.47425 12.0314 3.83475 13.0994 5.454 13.1294C4.194 14.1187 2.59725 14.7082 0.8775 14.7082C0.585 14.7082 0.29325 14.6909 0 14.6579C1.64175 15.7034 3.576 16.3147 5.66775 16.3147C12.4583 16.3147 16.167 10.6927 16.167 5.8252C16.167 5.66845 16.167 5.5102 16.1558 5.3527C16.8765 4.83595 17.5057 4.1827 18.0007 3.4417L17.9655 3.4267Z" fill="#3D3D4E"/>
</g>
<defs>
<clipPath id="clip0_302_237">
<rect width="18" height="18" fill="white"/>
</clipPath>
</defs>
</svg>
